<?xml version="1.0" encoding="utf-8"?>
<svg xmlns="http://www.w3.org/2000/svg" version="1.1" style="display: block;" viewBox="660 300 1100 1100" width="600" height="600" preserveAspectRatio="none">
  <defs>
    <linearGradient id="Gradient3" gradientUnits="userSpaceOnUse" x1="1162.15" y1="850.502" x2="766.864" y2="883.866" gradientTransform="matrix(1, 0, 0, 1, 197.204054, -4.697508)">
      <stop class="stop0" offset="0" stop-opacity="1" stop-color="rgb(13,48,81)"/>
      <stop class="stop1" offset="1" stop-opacity="1" stop-color="rgb(18,76,126)"/>
    </linearGradient>
  </defs>
  <path fill="rgb(13,45,77)" d="M 1218.69 469.989 C 1225.26 470.076 1235.81 477.942 1241.65 481.718 C 1334.59 541.851 1442.3 581.036 1552.81 590.334 C 1558.93 590.849 1560.14 624.739 1560.84 630.274 C 1563.87 654.33 1565.93 678.329 1565.21 702.596 C 1564.92 712.194 1565.61 722.737 1564.76 732.118 C 1553.45 856.669 1523.5 986.237 1439.45 1082.88 C 1377.27 1156.45 1318.18 1196.35 1231.58 1236.3 C 1227.99 1237.47 1224.24 1238.33 1220.57 1239.24 C 1207.05 1235.32 1194.15 1227.7 1181.43 1221.67 C 1096.72 1181.35 1024.59 1118.72 972.785 1040.51 C 930.966 978.524 905.274 904.828 891.517 831.851 C 888.658 816.683 883.521 793.781 882.465 778.851 C 880.444 750.281 881.704 718.908 881.42 690.138 C 881.189 666.819 881.237 644.538 883.957 621.397 C 885.174 611.042 884.716 603.151 886.849 592.197 C 944.047 590.36 1029.38 566.768 1082.24 545.239 C 1116.75 531.184 1192.08 493.593 1218.69 469.989 Z"/>
  <path fill="url(#Gradient3)" d="M 1221.25 508.505 C 1229.12 512.123 1238.12 518.352 1245.71 523.05 C 1333.16 577.139 1425.91 606.832 1526.98 621.686 C 1529.44 656.965 1531.56 688.317 1530.15 724.121 C 1525.23 849.988 1492.85 970.726 1409.44 1067.7 C 1360.23 1124.91 1291.8 1177 1221.62 1204.58 C 1158.77 1180.59 1085.62 1125.86 1041.04 1075.72 C 950.486 973.848 915.327 843.848 912.726 709.759 C 912.111 678.034 914.548 652.24 916.48 620.89 C 1003.29 610.563 1087.35 583.881 1164.23 542.255 C 1183.3 532.033 1202.73 519.87 1221.25 508.505 Z"/>
  <path fill="rgb(13,45,77)" d="M 1221.25 508.505 C 1229.12 512.123 1238.12 518.352 1245.71 523.05 C 1333.16 577.139 1425.91 606.832 1526.98 621.686 C 1529.44 656.965 1531.56 688.317 1530.15 724.121 C 1525.23 849.988 1492.85 970.726 1409.44 1067.7 C 1360.23 1124.91 1291.8 1177 1221.62 1204.58 C 1222.11 1192.21 1221.42 1176.14 1221.21 1163.49 L 1220.93 1162.7 C 1222.35 1130.47 1221.52 1092.25 1221.16 1059.74 C 1314.81 1025.62 1406.96 963.966 1419.77 856.994 C 1421 846.779 1422.55 833.778 1421.62 823.495 C 1415.79 707.02 1329.97 657.377 1221.63 656.524 L 1221.61 592.342 C 1221.59 580.986 1221.84 564.107 1220.66 553.161 L 1222.01 552.138 C 1220.75 540.89 1221.26 520.487 1221.25 508.505 Z"/>
  <path fill="rgb(196,147,51)" d="M 1221.25 508.505 C 1229.12 512.123 1238.12 518.352 1245.71 523.05 C 1333.16 577.139 1425.91 606.832 1526.98 621.686 C 1529.44 656.965 1531.56 688.317 1530.15 724.121 C 1525.23 849.988 1492.85 970.726 1409.44 1067.7 C 1360.23 1124.91 1291.8 1177 1221.62 1204.58 C 1222.11 1192.21 1221.42 1176.14 1221.21 1163.49 C 1355.17 1100.04 1446.02 990.091 1477.35 844.275 C 1491.2 779.823 1495.72 719.687 1491.02 653.831 C 1400.23 638.726 1299.26 602.41 1222.01 552.138 C 1220.75 540.89 1221.26 520.487 1221.25 508.505 Z"/>
  <path fill="rgb(238,195,88)" d="M 916.48 620.89 C 1003.29 610.563 1087.35 583.881 1164.23 542.255 C 1183.3 532.033 1202.73 519.87 1221.25 508.505 C 1221.26 520.487 1220.75 540.89 1222.01 552.138 L 1220.66 553.161 C 1204.71 561.604 1189.17 571.521 1173.21 579.579 C 1102.03 615.498 1030.5 641.664 951.646 653.834 C 944.564 799.333 971.505 941.233 1071.36 1053.37 C 1105.47 1091.69 1172.63 1144.47 1220.93 1162.7 L 1221.21 1163.49 C 1221.42 1176.14 1222.11 1192.21 1221.62 1204.58 C 1158.77 1180.59 1085.62 1125.86 1041.04 1075.72 C 950.486 973.848 915.327 843.848 912.726 709.759 C 912.111 678.034 914.548 652.24 916.48 620.89 Z"/>
  <path fill="rgb(196,147,51)" d="M 1421.62 823.495 C 1422.55 833.778 1421 846.779 1419.77 856.994 C 1406.96 963.966 1314.81 1025.62 1221.16 1059.74 C 1222.05 1049.07 1221.31 1027.7 1221.3 1015.98 L 1221.23 926.239 C 1221.22 916.74 1222.6 866.145 1220.98 859.452 C 1233.96 850.342 1242.26 844.234 1252.37 832.17 C 1252.67 856.355 1252.74 880.543 1252.59 904.73 C 1252.56 914.714 1251.95 976.224 1253.11 981.855 C 1261.33 977.466 1280.04 967.725 1286.32 961.926 C 1292.87 958.345 1302.47 950.604 1308 945.494 C 1340.28 915.659 1357.52 878.74 1359.53 835.07 C 1360.64 833.114 1360.49 828.943 1360.61 826.387 L 1391.21 826.341 C 1397.98 826.5 1414.44 827.262 1420.65 825.787 L 1421.62 823.495 Z"/>
  <path fill="rgb(238,195,88)" d="M 1391.21 826.341 C 1390.29 839.908 1389.65 851.519 1387.18 864.885 C 1379.55 906.21 1354.66 944.509 1322.94 971.654 C 1294.24 996.212 1261.44 1011.49 1226.83 1025.52 C 1231.95 1018.12 1250.88 989.366 1253.11 981.855 C 1261.33 977.466 1280.04 967.725 1286.32 961.926 C 1292.87 958.345 1302.47 950.604 1308 945.494 C 1340.28 915.659 1357.52 878.74 1359.53 835.07 C 1360.64 833.114 1360.49 828.943 1360.61 826.387 L 1391.21 826.341 Z"/>
  <path fill="rgb(238,195,88)" d="M 1221.63 656.524 C 1329.97 657.377 1415.79 707.02 1421.62 823.495 L 1420.65 825.787 C 1414.44 827.262 1397.98 826.5 1391.21 826.341 L 1360.61 826.387 C 1360.49 828.943 1360.64 833.114 1359.53 835.07 C 1359.66 763.85 1322.33 725.261 1252.96 714.794 L 1252.57 729.224 C 1242.91 744.236 1235.96 750.909 1222.33 762.376 C 1212.13 770.095 1202.85 774.429 1191.03 778.929 C 1188.91 743.555 1190.36 694.518 1190.5 658.529 C 1200.85 657.413 1211.23 657.029 1221.63 656.524 Z"/>
  <path fill="rgb(196,147,51)" d="M 1221.12 685.048 C 1248.17 685.066 1270.81 687.249 1296.71 695.788 C 1355.03 715.022 1389.98 765.082 1391.21 826.341 L 1360.61 826.387 C 1360.49 828.943 1360.64 833.114 1359.53 835.07 C 1359.66 763.85 1322.33 725.261 1252.96 714.794 L 1252.57 729.224 C 1242.91 744.236 1235.96 750.909 1222.33 762.376 C 1220.95 736.444 1221.16 710.991 1221.12 685.048 Z"/>
  <path fill="rgb(238,195,88)" d="M 1220.98 859.452 C 1222.6 866.145 1221.22 916.74 1221.23 926.239 L 1221.3 1015.98 C 1221.31 1027.7 1222.05 1049.07 1221.16 1059.74 L 1190.21 1044.05 C 1191.52 988.686 1190.39 928.805 1190.47 872.983 C 1202.24 869.078 1210.03 865.212 1220.98 859.452 Z"/>
  <path fill="rgb(13,45,77)" d="M 1252.59 904.73 C 1254.38 912.699 1253.55 936.137 1253.37 945.076 C 1252.32 997.842 1275.55 960.343 1286.32 961.926 C 1280.04 967.725 1261.33 977.466 1253.11 981.855 C 1251.95 976.224 1252.56 914.714 1252.59 904.73 Z"/>
  <path fill="rgb(238,195,88)" d="M 1031.62 704.569 C 1056.11 691.409 1083.64 682.086 1110.11 673.706 C 1110.66 717.968 1110.24 763.097 1110.39 807.445 C 1116.59 807.515 1122.79 807.469 1128.99 807.307 C 1179.67 806.033 1217.56 794.085 1252.54 757.262 C 1259.49 827.471 1210.36 857.202 1147.06 862.654 C 1134.75 863.713 1122.54 863.827 1110.21 864.108 L 1110.19 1000.04 C 1082.52 983.867 1068.94 969.218 1049.46 945.048 C 1048.89 938.676 1048.99 932.368 1048.99 925.978 C 1048.93 868.497 1049.26 810.991 1049.07 753.511 C 1049 729.284 1049.25 721.794 1031.62 704.569 Z"/>
  <path fill="rgb(196,147,51)" d="M 1252.54 757.262 C 1259.49 827.471 1210.36 857.202 1147.06 862.654 C 1134.75 863.713 1122.54 863.827 1110.21 864.108 L 1110.19 1000.04 C 1082.52 983.867 1068.94 969.218 1049.46 945.048 C 1085.04 933.214 1079.37 926.275 1079.31 891.91 L 1079.17 834.611 C 1135.23 840.83 1248.84 833.132 1252.54 757.262 Z"/>
</svg>