<svg xmlns="http://www.w3.org/2000/svg" version="1.1" style="display: block;" viewBox="660 300 1100 1100" width="600" height="600" preserveAspectRatio="none">
    <defs>
        <linearGradient id="Gradient1" gradientUnits="userSpaceOnUse" x1="1455.66" y1="850.398" x2="1627.27" y2="660.202">
            <stop class="stop0" offset="0" stop-opacity="1" stop-color="rgb(161,198,229)"/>
            <stop class="stop1" offset="1" stop-opacity="1" stop-color="rgb(211,235,242)"/>
        </linearGradient>
        <linearGradient id="Gradient2" gradientUnits="userSpaceOnUse" x1="1519.7" y1="690.816" x2="1343.77" y2="428.597">
            <stop class="stop0" offset="0" stop-opacity="1" stop-color="rgb(240,221,197)"/>
            <stop class="stop1" offset="1" stop-opacity="1" stop-color="rgb(252,255,255)"/>
        </linearGradient>
        <linearGradient id="Gradient3" gradientUnits="userSpaceOnUse" x1="1162.15" y1="850.502" x2="766.864" y2="883.866">
            <stop class="stop0" offset="0" stop-opacity="1" stop-color="rgb(13,48,81)"/>
            <stop class="stop1" offset="1" stop-opacity="1" stop-color="rgb(18,76,126)"/>
        </linearGradient>
    </defs>
    <path transform="translate(0,0)" fill="rgb(13,45,77)" d="M 1021.48 474.687 C 1028.05 474.774 1038.6 482.64 1044.44 486.416 C 1137.38 546.549 1245.09 585.734 1355.6 595.032 C 1361.72 595.547 1362.93 629.437 1363.63 634.972 C 1366.66 659.028 1368.72 683.027 1368 707.294 C 1367.71 716.892 1368.4 727.435 1367.55 736.816 C 1356.24 861.367 1326.29 990.935 1242.24 1087.58 C 1180.06 1161.15 1120.97 1201.05 1034.37 1241 C 1030.78 1242.17 1027.03 1243.03 1023.36 1243.94 C 1009.84 1240.02 996.94 1232.4 984.223 1226.37 C 899.513 1186.05 827.385 1123.42 775.58 1045.21 C 733.761 983.222 708.069 909.526 694.312 836.549 C 691.453 821.381 686.316 798.479 685.26 783.549 C 683.239 754.979 684.499 723.606 684.215 694.836 C 683.984 671.517 684.032 649.236 686.752 626.095 C 687.969 615.74 687.511 607.849 689.644 596.895 C 746.842 595.058 832.17 571.466 885.031 549.937 C 919.541 535.882 994.872 498.291 1021.48 474.687 z"/>
    <path transform="translate(0,0)" fill="url(#Gradient3)" d="M 1024.04 513.203 C 1031.91 516.821 1040.91 523.05 1048.5 527.748 C 1135.95 581.837 1228.7 611.53 1329.77 626.384 C 1332.23 661.663 1334.35 693.015 1332.94 728.819 C 1328.02 854.686 1295.64 975.424 1212.23 1072.4 C 1163.02 1129.61 1094.59 1181.7 1024.41 1209.28 C 961.556 1185.29 888.414 1130.56 843.837 1080.42 C 753.281 978.546 718.122 848.546 715.521 714.457 C 714.906 682.732 717.343 656.938 719.275 625.588 C 806.083 615.261 890.148 588.579 967.022 546.953 C 986.093 536.731 1005.52 524.568 1024.04 513.203 z"/>
    <path transform="translate(0,0)" fill="rgb(13,45,77)" d="M 1024.04 513.203 C 1031.91 516.821 1040.91 523.05 1048.5 527.748 C 1135.95 581.837 1228.7 611.53 1329.77 626.384 C 1332.23 661.663 1334.35 693.015 1332.94 728.819 C 1328.02 854.686 1295.64 975.424 1212.23 1072.4 C 1163.02 1129.61 1094.59 1181.7 1024.41 1209.28 C 1024.9 1196.91 1024.21 1180.84 1024 1168.19 L 1023.72 1167.4 C 1025.14 1135.17 1024.31 1096.95 1023.95 1064.44 C 1117.6 1030.32 1209.75 968.664 1222.56 861.692 C 1223.79 851.477 1225.34 838.476 1224.41 828.193 C 1218.58 711.718 1132.76 662.075 1024.42 661.222 L 1024.4 597.04 C 1024.38 585.684 1024.63 568.805 1023.45 557.859 L 1024.8 556.836 C 1023.54 545.588 1024.05 525.185 1024.04 513.203 z"/>
    <path transform="translate(0,0)" fill="rgb(196,147,51)" d="M 1024.04 513.203 C 1031.91 516.821 1040.91 523.05 1048.5 527.748 C 1135.95 581.837 1228.7 611.53 1329.77 626.384 C 1332.23 661.663 1334.35 693.015 1332.94 728.819 C 1328.02 854.686 1295.64 975.424 1212.23 1072.4 C 1163.02 1129.61 1094.59 1181.7 1024.41 1209.28 C 1024.9 1196.91 1024.21 1180.84 1024 1168.19 C 1157.96 1104.74 1248.81 994.789 1280.14 848.973 C 1293.99 784.521 1298.51 724.385 1293.81 658.529 C 1203.02 643.424 1102.05 607.108 1024.8 556.836 C 1023.54 545.588 1024.05 525.185 1024.04 513.203 z"/>
    <path transform="translate(0,0)" fill="rgb(238,195,88)" d="M 719.275 625.588 C 806.083 615.261 890.148 588.579 967.022 546.953 C 986.093 536.731 1005.52 524.568 1024.04 513.203 C 1024.05 525.185 1023.54 545.588 1024.8 556.836 L 1023.45 557.859 C 1007.5 566.302 991.964 576.219 975.999 584.277 C 904.828 620.196 833.296 646.362 754.441 658.532 C 747.359 804.031 774.3 945.931 874.15 1058.07 C 908.27 1096.39 975.424 1149.17 1023.72 1167.4 L 1024 1168.19 C 1024.21 1180.84 1024.9 1196.91 1024.41 1209.28 C 961.556 1185.29 888.414 1130.56 843.837 1080.42 C 753.281 978.546 718.122 848.546 715.521 714.457 C 714.906 682.732 717.343 656.938 719.275 625.588 z"/>
    <path transform="translate(0,0)" fill="rgb(196,147,51)" d="M 1224.41 828.193 C 1225.34 838.476 1223.79 851.477 1222.56 861.692 C 1209.75 968.664 1117.6 1030.32 1023.95 1064.44 C 1024.84 1053.77 1024.1 1032.4 1024.09 1020.68 L 1024.02 930.937 C 1024.01 921.438 1025.39 870.843 1023.77 864.15 C 1036.75 855.04 1045.05 848.932 1055.16 836.868 C 1055.46 861.053 1055.53 885.241 1055.38 909.428 C 1055.35 919.412 1054.74 980.922 1055.9 986.553 C 1064.12 982.164 1082.83 972.423 1089.11 966.624 C 1095.66 963.043 1105.26 955.302 1110.79 950.192 C 1143.07 920.357 1160.31 883.438 1162.32 839.768 C 1163.43 837.812 1163.28 833.641 1163.4 831.085 L 1194 831.039 C 1200.77 831.198 1217.23 831.96 1223.44 830.485 L 1224.41 828.193 z"/>
    <path transform="translate(0,0)" fill="rgb(238,195,88)" d="M 1194 831.039 C 1193.08 844.606 1192.44 856.217 1189.97 869.583 C 1182.34 910.908 1157.45 949.207 1125.73 976.352 C 1097.03 1000.91 1064.23 1016.19 1029.62 1030.22 C 1034.74 1022.82 1053.67 994.064 1055.9 986.553 C 1064.12 982.164 1082.83 972.423 1089.11 966.624 C 1095.66 963.043 1105.26 955.302 1110.79 950.192 C 1143.07 920.357 1160.31 883.438 1162.32 839.768 C 1163.43 837.812 1163.28 833.641 1163.4 831.085 L 1194 831.039 z"/>
    <path transform="translate(0,0)" fill="rgb(238,195,88)" d="M 1024.42 661.222 C 1132.76 662.075 1218.58 711.718 1224.41 828.193 L 1223.44 830.485 C 1217.23 831.96 1200.77 831.198 1194 831.039 L 1163.4 831.085 C 1163.28 833.641 1163.43 837.812 1162.32 839.768 C 1162.45 768.548 1125.12 729.959 1055.75 719.492 L 1055.36 733.922 C 1045.7 748.934 1038.75 755.607 1025.12 767.074 C 1014.92 774.793 1005.64 779.127 993.819 783.627 C 991.699 748.253 993.153 699.216 993.291 663.227 C 1003.64 662.111 1014.02 661.727 1024.42 661.222 z"/>
    <path transform="translate(0,0)" fill="rgb(196,147,51)" d="M 1023.91 689.746 C 1050.96 689.764 1073.6 691.947 1099.5 700.486 C 1157.82 719.72 1192.77 769.78 1194 831.039 L 1163.4 831.085 C 1163.28 833.641 1163.43 837.812 1162.32 839.768 C 1162.45 768.548 1125.12 729.959 1055.75 719.492 L 1055.36 733.922 C 1045.7 748.934 1038.75 755.607 1025.12 767.074 C 1023.74 741.142 1023.95 715.689 1023.91 689.746 z"/>
    <path transform="translate(0,0)" fill="rgb(238,195,88)" d="M 1023.77 864.15 C 1025.39 870.843 1024.01 921.438 1024.02 930.937 L 1024.09 1020.68 C 1024.1 1032.4 1024.84 1053.77 1023.95 1064.44 L 992.998 1048.75 C 994.308 993.384 993.181 933.503 993.264 877.681 C 1005.03 873.776 1012.82 869.91 1023.77 864.15 z"/>
    <path transform="translate(0,0)" fill="rgb(13,45,77)" d="M 1055.38 909.428 C 1057.17 917.397 1056.34 940.835 1056.16 949.774 C 1055.11 1002.54 1078.34 965.041 1089.11 966.624 C 1082.83 972.423 1064.12 982.164 1055.9 986.553 C 1054.74 980.922 1055.35 919.412 1055.38 909.428 z"/>
    <path transform="translate(0,0)" fill="rgb(238,195,88)" d="M 834.415 709.267 C 858.908 696.107 886.433 686.784 912.899 678.404 C 913.452 722.666 913.03 767.795 913.184 812.143 C 919.383 812.213 925.582 812.167 931.779 812.005 C 982.458 810.731 1020.35 798.783 1055.33 761.96 C 1062.28 832.169 1013.15 861.9 949.85 867.352 C 937.545 868.411 925.335 868.525 913.005 868.806 L 912.983 1004.74 C 885.315 988.565 871.74 973.916 852.258 949.746 C 851.686 943.374 851.788 937.066 851.79 930.676 C 851.724 873.195 852.052 815.689 851.869 758.209 C 851.792 733.982 852.043 726.492 834.415 709.267 z"/>
    <path transform="translate(0,0)" fill="rgb(196,147,51)" d="M 1055.33 761.96 C 1062.28 832.169 1013.15 861.9 949.85 867.352 C 937.545 868.411 925.335 868.525 913.005 868.806 L 912.983 1004.74 C 885.315 988.565 871.74 973.916 852.258 949.746 C 887.83 937.912 882.166 930.973 882.1 896.608 L 881.964 839.309 C 938.019 845.528 1051.63 837.83 1055.33 761.96 z"/>
    <path transform="translate(0,0)" fill="rgb(13,45,77)" d="M 1294.13 564.957 C 1288.98 563.226 1284.02 562.754 1278.67 562.019 C 1277.23 557.999 1280.48 551.414 1282.38 547.583 C 1301.17 509.653 1318.19 470.884 1336.88 432.881 C 1344.24 417.931 1349.57 398.882 1366.98 392.609 C 1383.94 386.496 1395.68 395.229 1410.36 402.452 C 1420.63 407.435 1430.98 412.256 1441.4 416.914 C 1477.19 433.238 1513.77 448.833 1549 466.114 C 1587.11 484.804 1554.25 530.696 1544.57 555.849 C 1551.94 551.306 1560.31 546.293 1567.47 541.542 C 1589.3 527.064 1618.4 512.042 1636.66 540.799 C 1643.21 551.127 1649.46 561.818 1655.68 572.443 L 1684.07 620.301 C 1697.08 642.677 1710.51 666.847 1723.35 689.444 C 1725.67 693.526 1725.87 707.353 1724.44 712.105 C 1718.01 733.496 1688.08 743.897 1670.56 755.431 C 1704.04 757.622 1727.59 752.282 1746.76 784.309 C 1748.05 808.076 1744.31 830.907 1742.19 854.655 C 1738.94 891.315 1734.31 927.737 1730.94 964.369 C 1730.55 968.549 1726.89 980.055 1724.28 982.883 C 1704.69 1004.17 1683 995.15 1656.77 992.091 L 1574.54 983.15 C 1544.94 979.938 1516.35 978.269 1485.81 974.055 C 1456.94 970.875 1390.82 976.274 1391.17 933.685 C 1391.31 916.9 1396.29 891.714 1398.68 874.389 C 1401.66 852.662 1399.61 826.705 1404.86 805.535 C 1401.89 798.5 1390.97 781.735 1386.34 772.865 C 1386.73 765.944 1387.59 750.01 1389.38 743.526 C 1389.56 739.019 1389.63 734.509 1389.58 729.999 C 1387.14 707.967 1389.81 681.227 1386.89 654.793 L 1385.92 641.135 C 1384.39 637.36 1384.73 632.273 1384.69 628.066 L 1384.46 627.904 C 1384.04 629.315 1384.09 640.551 1383.49 644.639 C 1382.78 643.118 1382.77 614.248 1383.67 611.672 C 1389.16 595.895 1400.3 576.555 1408.34 561.934 C 1409.65 558.012 1414.45 549.28 1416.37 545.091 C 1424.23 527.892 1434 511.564 1442.29 494.686 L 1440.77 492.642 C 1435.79 492.365 1409.82 507.329 1408 514.216 C 1405.05 525.406 1381.88 574.108 1382.44 582.591 L 1381.04 582.917 C 1380.09 581.118 1379.4 579.675 1378.56 577.818 C 1375.77 575.722 1375.62 575.947 1372.25 575.604 C 1355.41 572.564 1321.56 570.109 1306.66 566.179 C 1301.16 566.145 1299.43 566.194 1294.13 564.957 z M 1520.04 686.727 C 1516.95 666.257 1514.14 664.847 1531.98 652.744 C 1534.23 661.722 1537.78 677.512 1540.63 685.788 C 1542.3 687.152 1544.51 688.847 1546.03 690.29 C 1553.53 683.586 1591.72 665.139 1601.96 661.174 C 1605.06 658.317 1604.48 659.93 1604.84 656.623 C 1599.51 652.475 1582.87 654.246 1575.04 643.508 C 1571.29 638.375 1548.89 635.626 1543.47 637.338 C 1519.68 640.649 1512.48 660.841 1492.5 670.201 C 1487.21 680.891 1476.49 700.378 1475.01 711.083 L 1475.81 713.394 C 1481.98 713.951 1510.72 691.88 1520.04 686.727 z"/>
    <path transform="translate(0,0)" fill="rgb(244,139,38)" d="M 1306.66 566.179 L 1307.37 564.918 C 1321.25 539.774 1365.13 432.114 1377.51 421.68 C 1384.78 420.561 1448.22 451.597 1460.29 457.034 L 1508.97 479.089 C 1518.24 483.341 1532.58 488.711 1539.22 496.083 C 1529.35 523.165 1432.09 733.277 1423.63 742.249 C 1415.38 744.049 1396.26 734.764 1389.58 729.999 C 1387.14 707.967 1389.81 681.227 1386.89 654.793 L 1385.92 641.135 C 1384.39 637.36 1384.73 632.273 1384.69 628.066 L 1384.46 627.904 C 1384.04 629.315 1384.09 640.551 1383.49 644.639 C 1382.78 643.118 1382.77 614.248 1383.67 611.672 C 1389.16 595.895 1400.3 576.555 1408.34 561.934 C 1409.65 558.012 1414.45 549.28 1416.37 545.091 C 1424.23 527.892 1434 511.564 1442.29 494.686 L 1440.77 492.642 C 1435.79 492.365 1409.82 507.329 1408 514.216 C 1405.05 525.406 1381.88 574.108 1382.44 582.591 L 1381.04 582.917 C 1380.09 581.118 1379.4 579.675 1378.56 577.818 C 1375.77 575.722 1375.62 575.947 1372.25 575.604 C 1355.41 572.564 1321.56 570.109 1306.66 566.179 z"/>
    <path transform="translate(0,0)" fill="rgb(13,45,77)" d="M 1401.5 500.484 C 1416.67 491.263 1433.66 483.623 1449.24 474.552 C 1453.12 491.626 1458.13 512.079 1459.87 529.382 C 1455.64 538.595 1450.43 548.781 1445.36 557.55 C 1432.68 579.505 1421.5 604.331 1408.02 625.748 C 1417.24 630.544 1431.08 633.504 1423.24 646.344 C 1418.25 654.515 1416.43 657.398 1407.52 661.718 C 1404.01 660.635 1388.58 655.102 1386.89 654.793 L 1385.92 641.135 C 1384.39 637.36 1384.73 632.273 1384.69 628.066 L 1384.46 627.904 C 1384.04 629.315 1384.09 640.551 1383.49 644.639 C 1382.78 643.118 1382.77 614.248 1383.67 611.672 C 1389.16 595.895 1400.3 576.555 1408.34 561.934 C 1409.65 558.012 1414.45 549.28 1416.37 545.091 C 1424.23 527.892 1434 511.564 1442.29 494.686 L 1440.77 492.642 C 1435.79 492.365 1409.82 507.329 1408 514.216 C 1405.05 525.406 1381.88 574.108 1382.44 582.591 L 1381.04 582.917 C 1380.09 581.118 1379.4 579.675 1378.56 577.818 C 1375.77 575.722 1375.62 575.947 1372.25 575.604 L 1390.21 528.327 C 1393.04 520.866 1397.92 506.821 1401.5 500.484 z"/>
    <path transform="translate(0,0)" fill="rgb(151,157,159)" d="M 1442.29 494.686 C 1444.3 505.231 1446.26 515.877 1448.4 526.391 C 1434.01 555.866 1412.93 593.127 1396.9 622.092 C 1394.06 621.055 1390.32 620.163 1388.52 618.003 C 1393.32 605.525 1407.79 573.074 1408.34 561.934 C 1409.65 558.012 1414.45 549.28 1416.37 545.091 C 1424.23 527.892 1434 511.564 1442.29 494.686 z"/>
    <path transform="translate(0,0)" fill="rgb(196,147,51)" d="M 1384.69 628.066 C 1391 630.708 1408.65 637.075 1411.99 642.034 C 1411.36 644.894 1410.36 645.712 1408.51 647.959 C 1402.53 650.527 1392.25 642.375 1385.92 641.135 C 1384.39 637.36 1384.73 632.273 1384.69 628.066 z"/>
    <path transform="translate(0,0)" fill="url(#Gradient2)" d="M 1294.13 564.957 L 1338.29 468.77 C 1342.64 459.289 1346.83 449.044 1351.57 439.844 C 1360.18 423.102 1364.72 400.015 1388.52 410.531 C 1413.57 421.595 1437.94 433.131 1462.7 444.345 L 1512.74 467.03 C 1522 471.238 1531.84 475.309 1540.52 480.364 C 1544.09 482.448 1550.84 487.992 1550.69 492.168 C 1549.99 511.937 1533.19 541.024 1524.88 558.631 L 1487.25 639.362 L 1458.38 702.118 C 1451.51 717.347 1444.1 736.941 1434.51 750.346 C 1425.67 762.694 1400.26 748.616 1389.38 743.526 C 1389.56 739.019 1389.63 734.509 1389.58 729.999 C 1396.26 734.764 1415.38 744.049 1423.63 742.249 C 1432.09 733.277 1529.35 523.165 1539.22 496.083 C 1532.58 488.711 1518.24 483.341 1508.97 479.089 L 1460.29 457.034 C 1448.22 451.597 1384.78 420.561 1377.51 421.68 C 1365.13 432.114 1321.25 539.774 1307.37 564.918 L 1306.66 566.179 C 1301.16 566.145 1299.43 566.194 1294.13 564.957 z"/>
    <path transform="translate(0,0)" fill="rgb(151,157,159)" d="M 1648.11 769.539 C 1670 772.474 1692.93 773.45 1714.65 777.25 C 1723.17 778.741 1727.89 783.428 1731.58 790.994 C 1731.56 803.361 1729.62 817.316 1728.32 829.725 L 1722.25 887.703 L 1717.02 938.317 C 1715.3 954.946 1717.83 969.535 1702.76 979.136 C 1689.49 979.425 1669.71 976.757 1655.96 975.287 L 1581.23 967.228 L 1480.85 956.212 C 1462.03 954.135 1443.14 952.295 1424.4 949.501 C 1412.69 947.754 1408.48 940.266 1409.2 928.715 C 1411.21 896.718 1416.46 864.764 1418.89 832.789 C 1422.47 838.634 1425.35 843.269 1428.33 849.454 C 1442.57 874.972 1467.52 875.735 1489.51 861.169 C 1496.38 856.616 1505.65 851.644 1512.93 847.826 C 1533.29 855.864 1559.46 868.725 1580.11 878.007 C 1576.37 882.374 1572.91 885.876 1574.8 891.92 C 1579.59 897.632 1590.1 897.783 1597.86 898.937 C 1602.66 906.129 1606.43 916.239 1616.18 915.017 C 1622.89 910.581 1624.55 902.992 1627.57 895.222 C 1654.15 889.263 1656.3 884.332 1634.33 866.564 C 1636.51 837.962 1631.08 837.275 1608.04 851.491 C 1597.11 846.602 1587.22 838.526 1580.58 852.798 C 1566.75 845.893 1552.83 839.172 1538.82 832.638 C 1569.16 814.851 1599.62 797.258 1630.19 779.86 C 1635.68 776.604 1642.53 772.286 1648.11 769.539 z"/>
    <path transform="translate(0,0)" fill="rgb(248,250,251)" d="M 1648.11 769.539 C 1670 772.474 1692.93 773.45 1714.65 777.25 C 1723.17 778.741 1727.89 783.428 1731.58 790.994 C 1731.56 803.361 1729.62 817.316 1728.32 829.725 L 1722.25 887.703 L 1717.02 938.317 C 1715.3 954.946 1717.83 969.535 1702.76 979.136 C 1689.49 979.425 1669.71 976.757 1655.96 975.287 L 1581.23 967.228 L 1480.85 956.212 C 1462.03 954.135 1443.14 952.295 1424.4 949.501 C 1412.69 947.754 1408.48 940.266 1409.2 928.715 C 1411.21 896.718 1416.46 864.764 1418.89 832.789 C 1422.47 838.634 1425.35 843.269 1428.33 849.454 C 1426.86 870.689 1424.41 891.615 1422.2 912.77 C 1420.27 931.176 1417.52 937.221 1438.49 939.415 C 1521.82 948.132 1605.02 958.204 1688.38 966.523 C 1691.62 966.847 1693.93 966.889 1697.07 965.945 C 1702.69 961.599 1705.13 938.454 1705.08 931.462 C 1704.9 906.76 1722.87 808.206 1715.93 792.199 C 1708.26 784.189 1643.36 785.305 1630.19 779.86 C 1635.68 776.604 1642.53 772.286 1648.11 769.539 z"/>
    <path transform="translate(0,0)" fill="rgb(13,45,77)" d="M 1662.62 832.733 C 1666.38 833.845 1667.66 834.86 1668.11 838.566 C 1665.58 844.608 1657.92 849.236 1652.56 853.085 C 1639.24 845.694 1655.51 837.519 1662.62 832.733 z"/>
    <path transform="translate(0,0)" fill="rgb(13,45,77)" d="M 1582.18 909.721 L 1585.83 911.673 C 1589.71 919.309 1577.45 926.975 1571.68 930.608 L 1568.1 928.351 C 1564.22 920.285 1576.14 913.265 1582.18 909.721 z"/>
    <path transform="translate(0,0)" fill="rgb(13,45,77)" d="M 1636.81 913.267 C 1644.38 914.982 1648.02 924.086 1649.57 931.059 C 1650.28 934.251 1648.39 935.401 1646.45 937.707 C 1639.4 935.929 1635.67 927.009 1634.39 920.424 C 1633.68 916.798 1634.9 916.011 1636.81 913.267 z"/>
    <path transform="translate(0,0)" fill="rgb(13,45,77)" d="M 1662.14 880.909 C 1668.77 880.798 1679.19 879.775 1684.06 884.502 C 1685.17 888.681 1684.85 887.327 1683.39 892.084 C 1678.02 893.042 1667.49 892.804 1663.31 888.69 C 1661.13 886.552 1661.97 883.665 1662.14 880.909 z"/>
    <path transform="translate(0,0)" fill="rgb(13,45,77)" d="M 1600.54 809.365 L 1604.44 809.987 C 1609.53 814.417 1612.76 828.546 1609.2 834.075 C 1607.38 833.793 1605.82 833.43 1604.01 833.039 C 1598.23 828.119 1596.67 815.791 1600.54 809.365 z"/>
    <path transform="translate(0,0)" fill="rgb(42,137,196)" d="M 1526.55 598.619 C 1529.3 591.735 1531.11 585.728 1536.66 580.568 C 1542.35 575.279 1548.93 571.412 1555.87 567.907 C 1570.57 560.483 1583.95 550.885 1598.6 543.49 C 1607.23 539.135 1617.03 540.509 1622.53 548.936 C 1637.62 572.867 1651.32 597.713 1665.63 622.126 L 1694.28 671.039 C 1701.92 684.242 1720.04 707.577 1698.97 718.555 C 1688.59 726.237 1662.33 740.437 1650.21 747.438 C 1620.78 764.711 1591.24 781.806 1561.6 798.721 L 1503.77 832.259 C 1455.62 860.491 1458.06 864.223 1429.95 815.256 L 1403.97 769.928 C 1409.11 771.344 1414.89 773.111 1420.08 774.068 C 1433.51 772.508 1450.31 766.534 1454.53 753.497 C 1463.67 725.22 1465.52 735.599 1486.39 722.407 L 1492.45 732.509 C 1486.29 737.342 1480.43 741.514 1474.02 746.025 C 1491.5 761.483 1515.65 771.219 1538.87 773.315 C 1560.42 739.297 1575.49 754.082 1600.69 728.306 C 1612.6 716.124 1615.71 693.548 1613.32 677.45 C 1611.85 667.496 1618.72 655.551 1615.46 649.742 C 1612.9 645.188 1593.65 642.548 1587.77 639.12 C 1582.87 636.263 1575.61 631.46 1570.49 629.584 C 1565.49 627.79 1560.26 626.747 1554.96 626.488 C 1532.66 625.36 1517.16 636.115 1501.73 650.343 C 1510.34 634.193 1517.58 615.735 1526.55 598.619 z"/>
    <path transform="translate(0,0)" fill="url(#Gradient1)" d="M 1689.59 710.737 C 1687.77 714.32 1688 714.267 1688.5 718.087 C 1692.65 722.567 1693.58 719.839 1698.97 718.555 C 1688.59 726.237 1662.33 740.437 1650.21 747.438 C 1620.78 764.711 1591.24 781.806 1561.6 798.721 L 1503.77 832.259 C 1455.62 860.491 1458.06 864.223 1429.95 815.256 L 1403.97 769.928 C 1409.11 771.344 1414.89 773.111 1420.08 774.068 C 1427.07 786.097 1453.04 834.686 1462.27 840.191 C 1471.88 838.275 1543.3 795.453 1557.38 787.261 L 1689.59 710.737 z"/>
    <path transform="translate(0,0)" fill="rgb(248,250,251)" d="M 1526.55 598.619 C 1529.3 591.735 1531.11 585.728 1536.66 580.568 C 1542.35 575.279 1548.93 571.412 1555.87 567.907 C 1570.57 560.483 1583.95 550.885 1598.6 543.49 C 1607.23 539.135 1617.03 540.509 1622.53 548.936 C 1637.62 572.867 1651.32 597.713 1665.63 622.126 L 1694.28 671.039 C 1701.92 684.242 1720.04 707.577 1698.97 718.555 C 1693.58 719.839 1692.65 722.567 1688.5 718.087 C 1688 714.267 1687.77 714.32 1689.59 710.737 C 1692.69 708.122 1694.56 706.515 1695.51 702.55 C 1694.4 695.221 1618.59 564.202 1609.18 554.899 C 1597.88 553.065 1542.53 593.414 1526.55 598.619 z"/>
    <path transform="translate(0,0)" fill="rgb(151,157,159)" d="M 1601.96 661.174 L 1601.83 662.202 C 1599.17 684.227 1610.91 705.313 1586.62 725.994 C 1574.33 736.45 1559.82 737.206 1547.04 745.829 C 1542.46 748.918 1534.86 758.066 1531.1 762.634 C 1516.74 757.549 1505.24 754.134 1492.38 745.787 C 1508.48 735.018 1521.64 726.865 1538.13 717.011 C 1555.69 730.51 1556.84 732.123 1576.84 722.26 C 1568.89 715.348 1555.52 702.962 1546.85 698.086 C 1538.19 702.857 1529.04 711.558 1521.4 712.123 C 1517.53 710.406 1518.8 711.109 1516.23 706.807 C 1517.22 695.466 1530.41 695.944 1540.63 685.788 C 1542.3 687.152 1544.51 688.847 1546.03 690.29 C 1553.53 683.586 1591.72 665.139 1601.96 661.174 z"/>
    <path transform="translate(0,0)" fill="rgb(248,250,251)" d="M 1516.23 706.807 C 1517.22 695.466 1530.41 695.944 1540.63 685.788 C 1542.3 687.152 1544.51 688.847 1546.03 690.29 C 1539.39 695.517 1524.42 706.89 1516.23 706.807 z"/>
    <path transform="translate(0,0)" fill="rgb(238,195,88)" d="M 1622.38 853.864 L 1623.18 853.987 C 1625.26 857.703 1622.54 866.564 1624.45 870.429 C 1626 873.578 1635.82 880.32 1638.58 882.36 C 1631.81 884.088 1625.52 885.316 1619.4 888.693 L 1613.29 904.88 L 1605.17 891.507 C 1600.95 886.972 1591.9 887.778 1585.15 887.479 C 1589.93 881.882 1592.83 878.61 1596.72 872.357 C 1595.23 867.098 1593.91 860.829 1592.65 855.422 C 1598.15 857.718 1603.9 859.828 1609.47 861.962 C 1613.78 859.652 1618.25 856.562 1622.38 853.864 z"/>
    <path transform="translate(0,0)" fill="rgb(13,45,77)" d="M 1445.07 1004.56 L 1445.96 1005.42 C 1447.87 1033.12 1446.42 1064.46 1445.95 1092.6 C 1437.65 1084.94 1430.29 1079.52 1421.82 1072.35 C 1400.93 1098.12 1381.85 1110.07 1352.99 1125.56 C 1338.66 1133.25 1289.12 1145.65 1274.68 1140.62 C 1306.51 1136.95 1341.43 1108.18 1363.03 1085.83 C 1368.48 1080.19 1390.38 1060.34 1388.82 1052.14 C 1384.69 1045.05 1374.88 1041.82 1367.1 1036.77 C 1394.97 1024.99 1415.44 1015.04 1445.07 1004.56 z"/>
</svg>
